<?xml version="1.0" encoding="iso-8859-1"?>
<!-- Generator: Adobe Illustrator 19.0.0, SVG Export Plug-In . SVG Version: 6.00 Build 0)  -->
<svg version="1.1" id="Capa_1" xmlns="http://www.w3.org/2000/svg" xmlns:xlink="http://www.w3.org/1999/xlink" x="0px" y="0px"
	 viewBox="0 0 512.026 512.026" style="enable-background:new 0 0 512.026 512.026;" xml:space="preserve">
<path style="fill:#455A64;" d="M263.525,397.8l-149.3-149.3c-4.2-4.2-10.9-4.2-15.1,0l-80.9,80.9c-24.3,24.3-24.3,63.7,0,88.1l0,0
	l76.3,76.3c24.3,24.3,63.7,24.3,88.1,0l0,0l80.8-80.8C267.725,408.8,267.725,402,263.525,397.8L263.525,397.8z"/>
<g>
	<path style="fill:#CFD8DC;" d="M117.325,448c-2.8,0-5.5-1.1-7.6-3.1l-42.7-42.7c-4.1-4.2-4-11,0.3-15.1c4.1-4,10.7-4,14.8,0
		l42.7,42.7c4.2,4.2,4.1,10.9,0,15.1C122.825,446.9,120.125,448,117.325,448z"/>
	<path style="fill:#CFD8DC;" d="M160.025,426.7c-2.8,0-5.5-1.1-7.6-3.1l-64-64c-4.1-4.2-4-11,0.3-15.1c4.1-4,10.7-4,14.8,0l64,64
		c4.2,4.2,4.1,10.9,0,15.1C165.525,425.5,162.825,426.7,160.025,426.7z"/>
</g>
<path style="fill:#F44336;" d="M480.025,277.3L480.025,277.3v-10.7c2.7,0,5.2-0.9,7.2-2.7c16-16.4,24.9-38.4,24.8-61.3
	c0-38.6-67.6-202.6-202.7-202.6c-134,0-224,185.5-224,224c0,54.2,128,192,192,192c62.8,0,213.3-36.8,213.3-128
	C490.725,282.1,485.925,277.3,480.025,277.3z"/>
<g>
	<path style="fill:#C62828;" d="M373.325,320c-2.8,0-5.5-1.1-7.6-3.1c-21.7-22.2-27.8-55.3-15.5-83.8c8.2-23.7,30-39.9,55.1-41.1
		c51.2,0,85.3,57.8,85.3,96c0,5.9-4.8,10.7-10.7,10.7c-5.9,0-10.7-4.8-10.7-10.7c0-29.4-27.5-74.7-64-74.7
		c-16.3,1.4-30.2,12.4-35.3,27.9c-8.9,20.5-4.6,44.4,10.9,60.6c4.2,4.2,4.2,10.9,0,15.1C378.925,318.9,376.225,320,373.325,320z"/>
	<path style="fill:#C62828;" d="M352.025,298.7c-46.9,0-138.7-105.9-138.7-138.7c4.3-36.1,21.1-69.5,47.6-94.4
		c5-3.1,11.6-1.7,14.7,3.3s1.7,11.6-3.3,14.7c-20.3,20.9-33.4,47.6-37.7,76.3c0,18.8,80.5,117.3,117.3,117.3
		c5.9,0,10.7,4.8,10.7,10.7C362.725,293.9,357.925,298.7,352.025,298.7z"/>
</g>
<path d="M138.725,512c-16.5,0-32.4-6.5-44-18.2l-76.4-76.4c-24.3-24.3-24.3-63.7,0-88.1l0,0l80.8-80.8c4.2-4.1,11-4,15.1,0.3
	c4,4.1,4,10.7,0,14.8l-80.8,80.9c-16,16-16,41.9,0,57.9l0,0l76.3,76.3c16.2,15.5,41.7,15.5,57.9,0l80.8-80.8c4.2-4.1,11-4,15.1,0.3
	c4,4.1,4,10.7,0,14.8l-80.8,80.8C171.025,505.5,155.225,512,138.725,512z"/>
<path d="M117.325,448c-2.8,0-5.5-1.1-7.6-3.1l-42.7-42.7c-4.1-4.2-4-11,0.3-15.1c4.1-4,10.7-4,14.8,0l42.7,42.7
	c4.2,4.2,4.1,10.9,0,15.1C122.825,446.9,120.125,448,117.325,448z"/>
<path d="M160.025,426.7c-2.8,0-5.5-1.1-7.6-3.1l-64-64c-4.1-4.2-4-11,0.3-15.1c4.1-4,10.7-4,14.8,0l64,64c4.2,4.2,4.1,10.9,0,15.1
	C165.525,425.5,162.825,426.7,160.025,426.7z"/>
<path d="M277.325,416c-64,0-192-137.8-192-192c0-38.5,90-224,224-224c135.1,0,202.7,164,202.7,202.7c0.1,22.9-8.8,44.9-24.8,61.2
	l-0.3,0.2c2.4,7.7,3.6,15.8,3.7,23.9C490.725,379.2,340.125,416,277.325,416z M309.325,21.3c-120.6,0-202.7,177.5-202.7,202.7
	c0,39.2,114.9,170.7,170.7,170.7c52.9,0,192-32.8,192-106.7c0-29.4-27.5-74.7-64-74.7c-16.3,1.4-30.2,12.4-35.3,27.9
	c-8.9,20.5-4.6,44.4,10.9,60.6c4.1,4.2,4,11-0.3,15.1c-4.1,4-10.7,4-14.8,0c-21.7-22.2-27.8-55.3-15.5-83.8
	c8.2-23.7,30-39.9,55.1-41c31.6,2.1,59.4,21.4,72.5,50.1c8.4-11.5,12.8-25.3,12.8-39.5C490.725,173.2,427.525,21.3,309.325,21.3z"/>
<path d="M352.025,298.7c-46.9,0-138.7-105.9-138.7-138.7c4.3-36.1,21.1-69.5,47.6-94.4c5-3.1,11.6-1.7,14.7,3.3s1.7,11.6-3.3,14.7
	c-20.3,20.9-33.4,47.6-37.7,76.3c0,18.8,80.5,117.3,117.3,117.3c5.9,0,10.7,4.8,10.7,10.7
	C362.725,293.9,357.925,298.7,352.025,298.7z"/>
<path d="M234.725,128c-4.1,0-7.9-2.4-9.6-6.1c0,0-8.1-17.1-9.9-20c0,0-2.9-5.8-0.7-11c3.3-6.4,11.3-5.4,11.3-5.4c6,1,6,1,18.5,27.3
	c2.5,5.3,0.3,11.7-5,14.2C237.825,127.6,236.325,128,234.725,128z"/>
<g>
</g>
<g>
</g>
<g>
</g>
<g>
</g>
<g>
</g>
<g>
</g>
<g>
</g>
<g>
</g>
<g>
</g>
<g>
</g>
<g>
</g>
<g>
</g>
<g>
</g>
<g>
</g>
<g>
</g>
</svg>
