<svg height="512" viewBox="0 0 59 60" width="512" xmlns="http://www.w3.org/2000/svg"><g id="Page-1" fill="none" fill-rule="evenodd"><g id="003---Bug-Surrender" fill-rule="nonzero"><path id="Shape" d="m44 37c.0354624 4.7971665-1.9112296 9.3961359-5.38 12.71-1.1096308 1.0641757-2.373952 1.9542578-3.75 2.64-4.3158043 2.2000148-9.4241957 2.2000148-13.74 0-1.376048-.6857422-2.6403692-1.5758243-3.75-2.64-3.4687704-3.3138641-5.4154624-7.9128335-5.38-12.71 0-.37.01-.73.04-1.1.0885606-1.5728916.3879014-3.1267726.89-4.62.7331858-2.210722 1.9144604-4.2464633 3.47-5.98 1.35 3.86 6.03 6.7 11.6 6.7s10.25-2.84 11.6-6.7c1.5226655 1.6974871 2.6890446 3.683392 3.43 5.84.4389464 1.2896731.7307969 2.6248051.87 3.98.0687389.6242811.1021255 1.2519495.1 1.88z" fill="#ffeb3a"/><path id="Shape" d="m43.9 35.12c-.1392031-1.3551949-.4310536-2.6903269-.87-3.98-.7409554-2.156608-1.9073345-4.1425129-3.43-5.84-.2988957.8305131-.7345707 1.6051966-1.289 2.292.7060143 1.1134733 1.2827406 2.303831 1.719 3.548.4389464 1.2896731.7307969 2.6248051.87 3.98.0687389.6242811.1021255 1.2519495.1 1.88.0354624 4.7971665-1.9112296 9.3961359-5.38 12.71-1.1096308 1.0641757-2.373952 1.9542578-3.75 2.64-1.6770802.850263-3.4983926 1.3793593-5.37 1.56.5.049.993.09 1.5.09 2.3883874.0020969 4.7430802-.5634406 6.87-1.65 1.376048-.6857422 2.6403692-1.5758243 3.75-2.64 3.4687704-3.3138641 5.4154624-7.9128335 5.38-12.71.0021255-.6280505-.0312611-1.2557189-.1-1.88z" fill="#fdd834"/><path id="Shape" d="m18.88 57.86c.0408059.2884984-.0462452.5804464-.2383855.7994864-.1921404.21904-.4702587.3433852-.7616145.3405136h-7.84c-.28542346.0017327-.55798442-.1185847-.74903169-.3306471-.19104727-.2120625-.28237073-.4956569-.25096831-.7793529.21-1.74.96-4.89 3.67-4.89.6235474-.0062674 1.2453125.0676723 1.85.22 1.4323015.3132651 2.6829814 1.1793969 3.48 2.41.4310422.6773248.717055 1.4366207.84 2.23z" fill="#ff9801"/><path id="Shape" d="m21.13 52.35c-.8405283.2078029-1.6039607.6519817-2.2 1.28-.4821923.5676057-.7911182 1.2618212-.89 2-.7970186-1.2306031-2.0476985-2.0967349-3.48-2.41.311307-.7971954.7578603-1.5346849 1.32-2.18.4417999-.5049272.9458162-.9518216 1.5-1.33 1.1096308 1.0641757 2.373952 1.9542578 3.75 2.64z" fill="#ff5722"/><path id="Shape" d="m46.96 57.89c.0314024.283696-.059921.5672904-.2509683.7793529-.1910473.2120624-.4636082.3323798-.7490317.3306471h-7.84c-.2913558.0028716-.5694741-.1214736-.7616145-.3405136-.1921403-.21904-.2791914-.510988-.2383855-.7994864.122945-.7933793.4089578-1.5526752.84-2.23.7970186-1.2306031 2.0476985-2.0967349 3.48-2.41.6046875-.1523277 1.2264526-.2262674 1.85-.22 2.71 0 3.46 3.15 3.67 4.89z" fill="#ff9801"/><path id="Shape" d="m43.29 53c-.6235474-.0062674-1.2453125.0676723-1.85.22h-.013c1.791.742 2.356 3.2 2.533 4.666.0314024.283696-.059921.5672904-.2509683.7793529-.1910473.2120624-.4636082.3323798-.7490317.3306471h3c.2854235.0017327.5579844-.1185847.7490317-.3306471.1910473-.2120625.2823707-.4956569.2509683-.7793529-.21-1.736-.96-4.886-3.67-4.886z" fill="#f57c00"/><path id="Shape" d="m41.44 53.22c-1.4323015.3132651-2.6829814 1.1793969-3.48 2.41-.0988818-.7381788-.4078077-1.4323943-.89-2-.5960393-.6280183-1.3594717-1.0721971-2.2-1.28 1.376048-.6857422 2.6403692-1.5758243 3.75-2.64.5541838.3781784 1.0582001.8250728 1.5 1.33.5621397.6453151 1.008693 1.3828046 1.32 2.18z" fill="#ff5722"/><path id="Shape" d="m12.93 31.28c-.5020986 1.4932274-.8014394 3.0471084-.89 4.62-.5591263.3491487-1.0476136.800321-1.44 1.33-1.21953492 1.5298173-2.08064451 3.3135443-2.52 5.22-.75808505-.9197159-1.88812446-1.451715-3.08-1.45-.24181207-.0024674-.48319169.0210001-.72.07.61065161-2.2683221 1.67173331-4.3904855 3.12-6.24 1.35206927-1.8145441 3.3172866-3.0761212 5.53-3.55z" fill="#ff5722"/><path id="Shape" d="m9 45c.00246837 2.1160758-1.64359484 3.8679742-3.75572255 3.9972002-2.1121277.1292261-3.9594862-1.4089347-4.21500578-3.5095281-.25551957-2.1005934 1.16921408-4.0367768 3.25072833-4.4176721.23680831-.0489999.47818793-.0724674.72-.07 1.06086596 0 2.07828161.4214274 2.82842712 1.1715729.75014552.7501455 1.17157288 1.7675611 1.17157288 2.8284271z" fill="#ff9801"/><path id="Shape" d="m54.01 27c-.5305512 1.1667042-1.2058599 2.261981-2.01 3.26-.6482106.8340548-1.3639594 1.6133513-2.14 2.33-1.6219935 1.526168-3.7354392 2.4233186-5.96 2.53-.1392031-1.3551949-.4310536-2.6903269-.87-3.98 1.5084691.0794492 2.98566-.4501777 4.1-1.47 1.4635381-1.2928481 2.6214535-2.8948019 3.39-4.69.5919331 1.0316492 1.6094532 1.7490375 2.78 1.96.2345717.0398248.4720717.0598952.71.06z" fill="#ff5722"/><path id="Shape" d="m57.94 23.7c-.3331657 1.9093549-1.9917969 3.3020987-3.93 3.3-.2379283-.0001048-.4754283-.0201752-.71-.06-1.1705468-.2109625-2.1880669-.9283508-2.78-1.96v-.01c-.4647172-.8074305-.6277292-1.7536087-.46-2.67.2102874-1.1601227.9196266-2.1692856 1.94-2.76.8143214-.4758829 1.7715558-.6460579 2.7-.48 2.1698324.3962305 3.6154324 2.4664726 3.24 4.64z" fill="#ff9801"/><path id="Shape" d="m56 19.54c-.4025724-.2334266-.8423292-.3957983-1.3-.48-.7415972-.1301121-1.5049361-.0454508-2.2.244.1722268.0663028.3393442.1451822.5.236 1.2384816.7142958 2.0015569 2.0352954 2.0015569 3.465s-.7630753 2.7507042-2.0015569 3.465c-.1574668.0884102-.3204718.1665724-.488.234.2538942.1054373.5179463.1845189.788.236.2345717.0398248.4720717.0598952.71.06 1.8057345-.0076857 3.3824087-1.22425 3.8478288-2.9689907.4654201-1.7447408-.2958379-3.5849625-1.8578288-4.4910093z" fill="#f57c00"/><path id="Shape" d="m52 4.89v14.11c-4.1800395-.0441371-8.2909595-1.0718671-12-3-.726692-.3487236-1.5022471-.5847621-2.3-.7-.7586745-2.1058906-2.8245346-3.4509669-5.0573241-3.292811-2.2327895.158156-4.0884216 1.7810046-4.5426759 3.972811-.0338076.0040252-.0672448.0107126-.1.02v-14.11s8-2 12 0c3.7090405 1.92813286 7.8199605 2.95586285 12 3z" fill="#f5f5f5"/><path id="Shape" d="m40 1.89c-2.0551176-.80641391-4.2775616-1.09289278-6.47-.834 1.1988747.05694015 2.3761939.33990392 3.47.834 3.7090405 1.92813286 7.8199605 2.95586285 12 3v13.923c.9951501.1245321 1.9970882.1869862 3 .187v-14.11c-4.1800395-.04413715-8.2909595-1.07186714-12-3z" fill="#cfd8dc"/><path id="Shape" d="m56 2v17.54c-.4025724-.2334266-.8423292-.3957983-1.3-.48-.9284442-.1660579-1.8856786.0041171-2.7.48v-17.54c0-.55228475.4477153-1 1-1h2c.5522847 0 1 .44771525 1 1z" fill="#a0522d"/><path id="Shape" d="m56 26.47v14.53c0 1.1045695-.8954305 2-2 2s-2-.8954305-2-2v-10.74c.8041401-.998019 1.4794488-2.0932958 2.01-3.26.6980518-.0012485 1.3837972-.1838842 1.99-.53z" fill="#a0522d"/><path id="Shape" d="m26.92 13.9c-2.5667867 1.957905-5.6922051 3.044093-8.92 3.1.0016178-2.1273596 1.3491605-4.0207527 3.3586277-4.7191101 2.0094671-.6983574 4.2407912-.0487409 5.5613723 1.6191101z" fill="#ffeb3a"/><path id="Shape" d="m28 17c-.0073635 2.5749474-1.9691155 4.7232403-4.5328092 4.9638291-2.5636936.2405888-4.8908851-1.5052099-5.3771908-4.0338291-.0606131-.3062709-.0907601-.6177897-.09-.93 3.2277949-.055907 6.3532133-1.142095 8.92-3.1.7024934.8802074 1.0834988 1.9738341 1.08 3.1z" fill="#f5f5f5"/><path id="Shape" d="m38 17c-3.2277949-.055907-6.3532133-1.142095-8.92-3.1 1.1254651-1.4209404 2.9318298-2.12147 4.7210474-1.8308778s3.2810329 1.526789 3.8989526 3.2308778c.2021709.5438106.3038227 1.1198376.3 1.7z" fill="#ffeb3a"/><path id="Shape" d="m34.7 15.3c.155967.4352903.246944.8911865.27 1.353.9938667.2284894 2.0102088.3448823 3.03.347.0038227-.5801624-.0978291-1.1561894-.3-1.7-.9024276-2.526045-3.6449973-3.8818476-6.2-3.065 1.485052.4688023 2.6676619 1.6015208 3.2 3.065z" fill="#fdd834"/><path id="Shape" d="m38 17c.0007601.3122103-.0293869.6237291-.09.93-.4863057 2.5286192-2.8134972 4.2744179-5.3771908 4.0338291-2.5636937-.2405888-4.5254457-2.3888817-4.5328092-4.9638291.0025771-.3423162.0360462-.6837011.1-1.02.1563707-.7614805.4923591-1.4745987.98-2.08 2.5667867 1.957905 5.6922051 3.044093 8.92 3.1z" fill="#f5f5f5"/><path id="Shape" d="m29.08 13.9c-.3338362.4184161-.5969775.888625-.779 1.392 2.0620818 1.1025333 4.3607559 1.6886112 6.699 1.708.0007601.3122103-.0293869.6237291-.09.93-.3420335 1.8009496-1.645822 3.2683839-3.394 3.82.4789693.158741.9794586.2430552 1.484.25 2.4027658.0014695 4.465828-1.7086452 4.91-4.07.0606131-.3062709.0907601-.6177897.09-.93-3.2277949-.055907-6.3532133-1.142095-8.92-3.1z" fill="#cfd8dc"/><path id="Shape" d="m40 23c-.0019664.7805411-.1372451 1.5550115-.4 2.29v.01c-.4822832 1.3120851-1.2829196 2.483832-2.33 3.41-2.5807031 2.1985799-5.8806906 3.3697729-9.27 3.29-3.3893094.0797729-6.6892969-1.0914201-9.27-3.29-1.0470804-.926168-1.8477168-2.0979149-2.33-3.41v-.01c-.2627549-.7349885-.3980336-1.5094589-.4-2.29.0298022-1.8936243.7766977-3.7054714 2.09-5.07.4863057 2.5286192 2.8134972 4.2744179 5.3771908 4.0338291 2.5636937-.2405888 4.5254457-2.3888817 4.5328092-4.9638291.0073635 2.5749474 1.9691155 4.7232403 4.5328092 4.9638291 2.5636936.2405888 4.8908851-1.5052099 5.3771908-4.0338291 1.3133023 1.3645286 2.0601978 3.1763757 2.09 5.07z" fill="#ffdc00"/><path id="Shape" d="m37.91 17.93c-.1878083.9822595-.6693737 1.8843665-1.381 2.587.3079339.7917813.4675906 1.6334535.471 2.483-.0019664.7805411-.1372451 1.5550115-.4 2.29v.01c-.4822832 1.3120851-1.2829196 2.483832-2.33 3.41-2.1774045 1.878641-4.90183 3.0062796-7.77 3.216.492.046.991.074 1.5.074 3.3893094.0797729 6.6892969-1.0914201 9.27-3.29 1.0470804-.926168 1.8477168-2.0979149 2.33-3.41v-.01c.2627549-.7349885.3980336-1.5094589.4-2.29-.0298022-1.8936243-.7766977-3.7054714-2.09-5.07z" fill="#fec108"/><path id="Shape" d="m36.64 46c-.22.25-.44.48-.68.71-.8300033.8132354-1.7771877 1.4975002-2.81 2.03-3.227827 1.6799663-7.072173 1.6799663-10.3 0-1.0328123-.5324998-1.9799967-1.2167646-2.81-2.03-.24-.23-.46-.46-.68-.71z" fill="#ff9801"/><path id="Shape" d="m33.64 46c-.22.25-.44.48-.68.71-.8300033.8132354-1.7771877 1.4975002-2.81 2.03-1.1413812.5908137-2.376172.9801956-3.65 1.151 2.2825368.3242542 4.6092249-.0784553 6.65-1.151 1.0328123-.5324998 1.9799967-1.2167646 2.81-2.03.24-.23.46-.46.68-.71z" fill="#f57c00"/><path id="Shape" d="m39.42 41c-.5472571 1.8510094-1.4965258 3.5583273-2.78 5h-17.28c-1.2834742-1.4416727-2.2327429-3.1489906-2.78-5z" fill="#ff5722"/><path id="Shape" d="m36.42 41c-.5472571 1.8510094-1.4965258 3.5583273-2.78 5h3c1.2834742-1.4416727 2.2327429-3.1489906 2.78-5z" fill="#d84315"/><path id="Shape" d="m40 36.97c-.0011909 1.3640448-.1964818 2.72098-.58 4.03h-22.84c-.3835182-1.30902-.5788091-2.6659552-.58-4.03 0-.28.01-.56.03-.84 0-.04.01-.09.01-.13h23.92c.03.32.04.64.04.97z" fill="#ff9801"/><path id="Shape" d="m39.96 36h-3c.03.32.04.64.04.97-.0011909 1.3640448-.1964818 2.72098-.58 4.03h3c.3835182-1.30902.5788091-2.6659552.58-4.03 0-.33-.01-.65-.04-.97z" fill="#f57c00"/><path id="Shape" d="m39.96 36h-23.92c.0748261-1.1600144.2965986-2.3058389.66-3.41.4492697-1.400129 1.1359403-2.7125833 2.03-3.88 2.5807031 2.1985799 5.8806906 3.3697729 9.27 3.29 3.3893094.0797729 6.6892969-1.0914201 9.27-3.29.8701811 1.1376633 1.5459872 2.4115577 2 3.77.3330853.9883288.5511901 2.0117436.65 3.05.02.16.03.31.04.47z" fill="#ff5722"/><path id="Shape" d="m39.92 35.53c-.0988099-1.0382564-.3169147-2.0616712-.65-3.05-.4540128-1.3584423-1.1298189-2.6323367-2-3.77-.6240835.5617104-1.3086114 1.0523837-2.041 1.463.9406137 1.6440431 1.517276 3.4708792 1.691 5.357.02.16.03.31.04.47h3c-.01-.16-.02-.31-.04-.47z" fill="#d84315"/><g fill="#000"><path id="Shape" d="m5 50c1.84452406.0022058 3.54007468-1.0124856 4.40986757-2.6390569.86979293-1.6265713.77218333-3.6001373-.25386757-5.1329431.39888002-1.4109353 1.0456261-2.739643 1.91-3.924.2702437 4.2087891 1.9762023 8.1974777 4.833 11.3-.2746328.2449852-.5344264.5061145-.778.782-.4489392.5238352-.8339772 1.0992102-1.147 1.714-.4167633-.0631558-.8374926-.0965736-1.259-.1-2.53 0-4.231 2.1-4.665 5.769-.06593977.5670851.11361142 1.1353187.49342215 1.561555s.92367207.6698404 1.49457785.669445h7.842c.5906405.0004059 1.1515963-.2588625 1.534-.709.3757736-.4372494.54033-1.0175851.45-1.587-.1245949-.7883985-.3854897-1.5490881-.771-2.248.0990432-.4271292.2985673-.8244633.582-1.159.3899703-.4050382.8750063-.7061662 1.411-.876 4.3692814 2.1053226 9.4597186 2.1053226 13.829 0 .5314772.1686487 1.0126107.4669515 1.4.868.2870165.336317.4893241.7364748.59 1.167-.385361.6989781-.6462467 1.4596409-.771 2.248-.09033.5694149.0742264 1.1497506.45 1.587.3828558.4506711.9446608.7099939 1.536.709h7.842c.5709058.0003954 1.1147671-.2432087 1.4945778-.669445.3798108-.4262363.559362-.9944699.4934222-1.561555-.434-3.669-2.135-5.769-4.665-5.769-.4213885.0017711-.8421171.0335179-1.259.095-.3158382-.6156311-.7035435-1.1916504-1.155-1.716-.2411654-.2726567-.4982831-.5307762-.77-.773 3.1639241-3.4340649 4.9137318-7.9366317 4.899-12.606 0-.343-.009-.671-.025-.99 2.0861391-.3070942 4.0283922-1.2450706 5.566-2.688.162-.151.3-.308.459-.461v8.139c0 1.6568542 1.3431458 3 3 3s3-1.3431458 3-3v-14.021c1.2578704-.9340112 1.9994282-2.408279 1.9994282-3.975s-.7415578-3.0409888-1.9994282-3.975v-17.029c0-1.1045695-.8954305-2-2-2h-2c-1.1045695 0-2 .8954305-2 2v1.858c-3.6799028-.19749432-7.2763554-1.17149809-10.553-2.858-4.282-2.144-12.347-.166-12.69-.08-.4449311.11145909-.7569879.51132061-.757.97v10.65c-1.8453929-1.6605591-4.5236513-2.0112086-6.7343337-.8816888-2.2106823 1.1295198-3.4959227 3.5052682-3.2316663 5.9736888-1.2917651 1.4923201-2.012475 3.3943706-2.034 5.368.0100364.6972826.113285 1.3900909.307 2.06-1.3479141 1.5959677-2.4043676 3.4167505-3.121 5.379-2.23516478.5993415-4.20308782 1.9345417-5.586 3.79-1.39999468 1.8079643-2.46295827 3.8532715-3.138 6.038-2.340304.7518983-3.78342916 3.0972462-3.39975917 5.5252436.38366998 2.4279974 2.47964329 4.2141001 4.93775917 4.2077564zm11.631 1.7c.2189177-.2471498.4548247-.4787129.706-.693.5272951.4533134 1.0827375.8728177 1.663 1.256-.2995724.2041773-.575002.4416975-.821.708-.1966941.2272852-.369908.4738721-.517.736-.5148225-.4348361-1.0927582-.7888808-1.714-1.05.198965-.3385397.4275247-.658791.683-.957zm1.249 6.3h-7.844c.177-1.495.761-4 2.679-4 1.7847492-.1216865 3.5000498.7127429 4.506 2.192.013.019.025.037.039.055.3207482.5357879.5356383 1.1281784.633 1.745-.0031053.0042805-.0077794.0071569-.013.008zm28.082 0h-7.842l-.009.021c.403-2.521 2.338-4.021 5.174-4.021 1.915 0 2.502 2.509 2.677 4zm-7.624-4.292c-.148963-.2657638-.3245304-.5157127-.524-.746-.2435552-.2630503-.5159353-.4978607-.812-.7.5796159-.3824713 1.1343957-.8013117 1.661-1.254.5563334.464407 1.026809 1.0228852 1.39 1.65-.6215507.2611125-1.1998172.6151533-1.715 1.05zm-.409-4.721c-5.555806 5.3156183-14.3124061 5.3129735-19.865-.006-3.2625906-3.1281625-5.0940132-7.4611552-5.064-11.981 0-.343.009-.676.039-1.044.0831169-1.4844383.3656532-2.9509363.84-4.36.5284622-1.5892471 1.3046985-3.0850206 2.3-4.432.3578142.595617.7789237 1.1508379 1.256 1.656-.7179125 1.0684585-1.2836699 2.2316101-1.681 3.456-.4026629 1.2244529-.6440289 2.4961625-.718 3.783-.021.3-.032.607-.032.911-.0004398 1.4889453.2199581 2.9697227.654 4.394.005.013.008.025.013.038.5952444 1.9428047 1.6017051 3.7347208 2.951 5.254.024.026.046.052.072.076.213.235.422.474.651.694.9013013.8808448 1.9289397 1.6223353 3.049 2.2 3.5154002 1.8287041 7.7015998 1.8287041 11.217 0 1.1186805-.5774618 2.1446977-1.3189986 3.044-2.2.232-.221.442-.462.657-.7.0268493-.0251843.0522248-.0518953.076-.08 1.3476703-1.5184252 2.3530629-3.3088972 2.948-5.25.006-.014.009-.027.015-.041.4311107-1.4217271.6498052-2.8993474.649-4.385.0039036-.5129146-.0241508-1.0255742-.084-1.535-.1074224-1.1158076-.3422861-2.2156409-.7-3.278-.3999663-1.1801928-.9537347-2.3025236-1.647-3.338.4774386-.5061892.8988768-1.0624072 1.257-1.659.9650702 1.3110337 1.7257197 2.7608533 2.256 4.3.4153918 1.2223601.691473 2.4877044.823 3.772.0651656.5870552.0968835 1.1773421.095 1.768.0294847 4.5228975-1.8046109 8.8583943-5.071 11.987zm-9.929-15.987c3.2468871.043103 6.4227384-.9515183 9.065-2.839.5222911.8266395.9442633 1.7125462 1.257 2.639.2339708.7167668.4033131 1.4530379.506 2.2h-21.654c.099258-.7122424.2588315-1.4147673.477-2.1.310721-.9630297.7417969-1.882972 1.283-2.738 2.6426283 1.8873933 5.8188736 2.8816779 9.066 2.838zm8.177 12h-16.356c-.7464122-.9065623-1.3565092-1.9172145-1.811-3h19.979c-.4549271 1.0827808-1.0653523 2.0934184-1.812 3zm-2.11 2c-.4368112.3192028-.8975001.6043752-1.378.853-2.9414914 1.5232668-6.4395086 1.5232668-9.381 0-.4797207-.2483156-.9394357-.5335061-1.375-.853zm4.933-10c-.0066773 1.0108381-.1301633 2.0175174-.368 3h-21.263c-.2381736-.9824432-.3619952-1.9891231-.369-3zm-15-18c.5522847 0 1-.4477153 1-1v-1.734c.5569091-.2839755 1.0977306-.5984531 1.62-.942.2478246.5241147.3775455 1.0962524.38 1.676.0031023 2.0256922-1.5107619 3.7329151-3.5222785 3.9721626-2.0115167.2392474-3.883592-1.0652559-4.3557215-3.0351626 1.3231731-.1036588 2.626995-.3806957 3.878-.824v.887c0 .5522847.4477153 1 1 1zm12.837-3.066c-2.1999324-.2260936-4.3155313-.967838-6.175-2.165 1.0547252-.7743161 2.4235505-.9784347 3.6582969-.5455236s2.1764215 1.447108 2.5167031 2.7105236zm-7.457-.61c.5222694.3435469 1.0630909.6580245 1.62.942v1.734c0 .5522847.4477153.9999999 1 .9999999s1-.4477152 1-.9999999v-.887c1.251005.4433043 2.5548269.7203412 3.878.824-.4721295 1.9699067-2.3442048 3.27441-4.3557215 3.0351626-2.0115166-.2392475-3.5253808-1.9464704-3.5222785-3.9721626.0024545-.5797476.1321754-1.1518853.38-1.676zm9.62 1.676c0-.117-.011-.231-.018-.347.1950166.0691365.3856948.1499494.571.242 3.2837463 1.6824119 6.8637214 2.7091922 10.54 3.023-1.1625755 1.4325877-1.421915 3.3967653-.671 5.082-.7272735 1.4912745-1.7365291 2.8275534-2.972 3.935-.7546309.6974641-1.724857 1.116249-2.75 1.187-.7132074-1.8425277-1.7269517-3.554066-3-5.065.1908729-.6693084.2917598-1.3610558.3-2.057-.021525-1.9736294-.7422349-3.8756799-2.034-5.368.0224555-.2099209.0338046-.4208816.034-.632zm17.953 6.526c-.278518 1.5638983-1.7278378 2.6396018-3.3053802 2.4532951s-2.7364049-1.5700348-2.642951-3.1557891 1.4068255-2.8237852 2.9953312-2.823506c.176364.0003943.35236.0161201.526.047 1.6307297.2907632 2.7171987 1.8481698 2.427 3.479zm-7.776 8.333c-1.2167741 1.1523311-2.7564402 1.9055917-4.413 2.159-.104816-.658492-.2440062-1.3110503-.417-1.955 1.2974628-.1873731 2.5063758-.767749 3.464-1.663 1.1573761-1.0537476 2.1486013-2.2765958 2.94-3.627.5111968.4401296 1.1071021.7709234 1.751.972-.3836814.6645073-.8162053 1.2995888-1.294 1.9-.6148732.7926726-1.2941837 1.5331912-2.031 2.214zm5.823 9.141c0 .5522847-.4477153 1-1 1s-1-.4477153-1-1v-10.409c.6368393-.8280808 1.1936682-1.714721 1.663-2.648.113-.016.226-.03.337-.053zm-2-39h2v16.114c-.043-.009-.081-.028-.125-.036-.6213814-.1082396-1.257674-.0973802-1.875.032zm-13.447.785c3.5528496 1.83070799 7.4553583 2.88244553 11.447 3.085v12.108c-3.6786685-.2025115-7.272945-1.1805692-10.547-2.87-.6486716-.3168642-1.3357524-.5481321-2.044-.688-.8090938-1.7084359-2.3784517-2.9336211-4.232151-3.3040063-1.8536992-.3703852-3.7733682.157662-5.176849 1.4240063v-9.853c2.578-.542 7.846-1.256 10.553.098zm-16.553 10.215c.8411414.0020473 1.6598726.2713392 2.338.769-1.8594687 1.197162-3.9750676 1.9389064-6.175 2.165.4757116-1.7282082 2.044525-2.9278168 3.837-2.934zm-5.187 7c1.0367193 1.7992313 2.9314599 2.9330402 5.0070395 2.996202 2.0755797.0631619 4.0357563-.9533382 5.1799605-2.686202 1.1442042 1.7328638 3.1043808 2.7493639 5.1799605 2.686202 2.0755796-.0631618 3.9703202-1.1969707 5.0070395-2.996202.5264775.9126162.8066415 1.9464316.813 3-.0013075.6678238-.117328 1.33046-.343 1.959-.0085249.022942-.0158679.046306-.022.07-.4152038 1.1016433-1.0859128 2.0890284-1.957 2.881-.007 0-.014 0-.02.009-.023.018-.033.043-.054.062-2.4028504 2.0236961-5.4634818 3.0976205-8.604 3.019-3.1413452.078927-6.2028204-.9953996-8.606-3.02-.02-.019-.031-.044-.053-.062-.006 0-.013 0-.018-.009-.8708557-.7905832-1.5415796-1.7766194-1.957-2.877-.007-.024-.014-.049-.023-.073-.225672-.62854-.3416925-1.2911762-.343-1.959.0063585-1.0535684.2865225-2.0873838.813-3zm-9.613 15.43c.84796079-1.1399281 1.9760931-2.0414006 3.275-2.617-.1911942.8446476-.3221901 1.7018017-.392 2.565-.485896.3531708-.9180528.7748857-1.283 1.252-.95325294 1.2415419-1.71659978 2.6179254-2.265 4.084-.58239003-.3439472-1.22897263-.5651465-1.9-.65.61801689-1.6644455 1.48267344-3.226558 2.565-4.634zm-3.2 6.57c1.65685425 0 3 1.3431458 3 3s-1.34314575 3-3 3-3-1.3431458-3-3 1.34314575-3 3-3z"/><path id="Shape" d="m24.682 28.731c.008-.007.873-.731 3.318-.731 1.1444636-.1100913 2.2949166.1372578 3.293.708.3923789.3789722 1.0160848.3735524 1.4018186-.0121814s.3911536-1.0094397.0121814-1.4018186c-.216-.217-1.457-1.294-4.707-1.294s-4.491 1.077-4.707 1.293c-.3769533.3790883-.3818401.9899294-.011 1.375.3751939.3909869.9912049.4187074 1.4.063z"/></g></g></g></svg>