<svg id="Capa_1" enable-background="new 0 0 497 497" height="512" viewBox="0 0 497 497" width="512" xmlns="http://www.w3.org/2000/svg"><g><path d="m401.378 497h-388.437c-7.147 0-12.941-5.794-12.941-12.941v-402.91c0-7.147 5.794-12.941 12.941-12.941h148.346l52.246 8.628 53.972-8.628h133.873c7.147 0 12.941 5.794 12.941 12.941v402.909c0 7.148-5.794 12.942-12.941 12.942z" fill="#eaae8e"/><path d="m415.851 68.208h-25.883c7.147 0 12.941 5.794 12.941 12.941v402.909c0 7.147-5.794 12.941-12.941 12.941h25.883c7.147 0 12.941-5.794 12.941-12.941v-402.909c0-7.147-5.794-12.941-12.941-12.941z" fill="#e39b74"/><path d="m261.301 164.485-42.376-20.652c-2.859-1.393-6.199-1.393-9.058 0l-42.376 20.652c-2.865 1.396-6.204-.69-6.204-3.878v-92.399h84.649l18.981 8.628.863 82.046c-.001 3.187-1.613 6.999-4.479 5.603z" fill="#fed402"/><g><path d="m245.936 68.208v88.789l15.365 7.488c2.865 1.396 6.204-.69 6.204-3.878v-92.399z" fill="#fac600"/></g><path d="m487 100.135c0-55.303-34.832-100.135-90.135-100.135s-100.135 44.832-100.135 100.135 44.832 100.135 100.135 100.135 90.135-44.832 90.135-100.135z" fill="#8ebaff"/><path d="m396.865 0c-4.408 0-8.749.288-13.006.84 49.158 6.376 87.129 48.4 87.129 99.295s-37.971 92.919-87.129 99.295c4.257.552 8.598.84 13.006.84 55.303 0 100.135-44.832 100.135-100.135s-44.832-100.135-100.135-100.135z" fill="#7aa3ff"/><path d="m432.791 63.688v-24.336h-71.852v24.336c0 14.51 8.607 27.002 20.989 32.672-12.383 5.67-10.989 18.162-10.989 32.672v14.336h51.852v-14.336c0-14.51 1.393-27.002-10.989-32.672 12.382-5.67 20.989-18.162 20.989-32.672z" fill="#f7f9fa"/><path d="m360.939 129.032v24.336h71.852v-24.336c0-14.51-8.607-27.001-20.989-32.672h-29.873c-12.383 5.671-20.99 18.163-20.99 32.672z" fill="#fed402"/><g><path d="m438.778 46.853h-83.827c-4.143 0-7.5-3.358-7.5-7.5s3.357-7.5 7.5-7.5h83.827c4.143 0 7.5 3.358 7.5 7.5s-3.357 7.5-7.5 7.5z" fill="#f7f9fa"/></g><g><path d="m438.778 160.869h-83.827c-4.143 0-7.5-3.358-7.5-7.5s3.357-7.5 7.5-7.5h83.827c4.143 0 7.5 3.358 7.5 7.5s-3.357 7.5-7.5 7.5z" fill="#f7f9fa"/></g></g></svg>